<svg xmlns="http://www.w3.org/2000/svg" viewBox="0 0 64 64" role="img" aria-label="Ultimate Image Captioner Pro">
  <defs>
    <linearGradient id="bg" x1="6" y1="6" x2="58" y2="58" gradientUnits="userSpaceOnUse">
      <stop offset="0" stop-color="#0f766e"/>
      <stop offset="0.52" stop-color="#2563eb"/>
      <stop offset="1" stop-color="#7c3aed"/>
    </linearGradient>
  </defs>
  <rect x="4" y="4" width="56" height="56" rx="12" fill="url(#bg)"/>
  <path d="M16 18h32a4 4 0 0 1 4 4v16a4 4 0 0 1-4 4H27l-9 8v-8h-2a4 4 0 0 1-4-4V22a4 4 0 0 1 4-4Z" fill="#f8fafc"/>
  <path d="M20 26h24M20 32h18M20 38h10" stroke="#0f172a" stroke-width="4" stroke-linecap="round"/>
  <path d="M43 41l6 9 3-5 5 8H36l5-8 2 3Z" fill="#22c55e"/>
</svg>
